<?xml version="1.0" standalone="no"?>
<!DOCTYPE svg PUBLIC "-//W3C//DTD SVG 20010904//EN"
 "http://www.w3.org/TR/2001/REC-SVG-20010904/DTD/svg10.dtd">
<svg version="1.0" xmlns="http://www.w3.org/2000/svg"
 width="500.000000pt" height="500.000000pt" viewBox="0 0 500.000000 500.000000"
 preserveAspectRatio="xMidYMid meet">

<g transform="translate(0.000000,500.000000) scale(0.100000,-0.100000)"
fill="#000000" stroke="none">
<path d="M1270 2908 c0 -233 5 -454 10 -493 18 -122 76 -221 171 -291 50 -36
166 -84 204 -83 19 0 19 1 1 12 -96 62 -167 150 -196 244 -19 61 -20 92 -20
534 l0 469 130 0 c109 0 130 2 130 15 0 13 -31 15 -215 15 l-215 0 0 -422z"/>
<path d="M3040 2913 c0 -351 -3 -423 -15 -447 -8 -15 -15 -30 -15 -32 0 -2 36
-4 80 -4 l80 0 0 435 0 435 135 0 c113 0 135 2 135 15 0 13 -29 15 -200 15
l-200 0 0 -417z"/>
<path d="M2040 2450 c0 -11 7 -20 15 -20 17 0 18 2 9 24 -9 23 -24 20 -24 -4z"/>
<path d="M3010 1780 l0 -180 -870 0 -870 0 0 -215 0 -215 85 0 85 0 0 200 0
200 865 0 865 0 0 195 0 195 -80 0 -80 0 0 -180z"/>
</g>
</svg>
